<svg width="46" height="46" viewBox="0 0 46 46" fill="none" xmlns="http://www.w3.org/2000/svg">
    <path
        d="M22.8749 1.00026C18.6395 1.00026 14.4952 2.2298 10.9451 4.53962C7.39503 6.84945 4.59183 10.1402 2.87584 14.0124C1.15985 17.8846 0.60487 22.1716 1.27828 26.3531C1.95168 30.5346 3.82451 34.4307 6.6694 37.5684C9.51429 40.7061 13.2089 42.9504 17.3046 44.0289C21.4004 45.1074 25.7212 44.9737 29.7424 43.644C33.7637 42.3143 37.3124 39.8459 39.9579 36.5383C42.6033 33.2307 44.2316 29.2263 44.6452 25.0111"
        stroke-linecap="round" stroke="black" stroke-width="2px" class="p1"></path>
    <path
        d="M20.3104 26.3143L24.4353 22.4949L20.3104 18.6754C20.212 18.5843 20.134 18.4761 20.0807 18.357C20.0274 18.238 20 18.1103 20 17.9815C20 17.8526 20.0274 17.7249 20.0807 17.6059C20.134 17.4868 20.212 17.3786 20.3104 17.2875C20.4089 17.1963 20.5257 17.124 20.6543 17.0747C20.7829 17.0254 20.9207 17 21.0599 17C21.1991 17 21.337 17.0254 21.4656 17.0747C21.5942 17.124 21.711 17.1963 21.8094 17.2875L26.6891 21.8058C26.7877 21.8969 26.8658 22.005 26.9192 22.1241C26.9725 22.2432 27 22.3709 27 22.4998C27 22.6287 26.9725 22.7564 26.9192 22.8755C26.8658 22.9945 26.7877 23.1027 26.6891 23.1938L21.8094 27.7121C21.7111 27.8034 21.5943 27.8758 21.4656 27.9252C21.337 27.9746 21.1992 28 21.0599 28C20.9207 28 20.7828 27.9746 20.6542 27.9252C20.5256 27.8758 20.4088 27.8034 20.3104 27.7121C19.9065 27.3282 19.8958 26.6982 20.3104 26.3143Z"
        class="p2" stroke="black" fill="black"></path>
    <circle cx="39" cy="8" r="2" class="c1" stroke="black" fill="black"></circle>
</svg>