<svg id="btn-slide-prev" width="46" height="46" viewBox="0 0 46 46" fill="none" xmlns="http://www.w3.org/2000/svg">
    <path
        d="M0.953381 22.8224C0.953381 27.0578 2.18293 31.2021 4.49275 34.7521C6.80257 38.3022 10.0933 41.1054 13.9655 42.8214C17.8377 44.5374 22.1248 45.0924 26.3063 44.419C30.4878 43.7456 34.3839 41.8728 37.5215 39.0279C40.6592 36.183 42.9035 32.4884 43.982 28.3926C45.0605 24.2969 44.9268 19.9761 43.5971 15.9548C42.2675 11.9336 39.799 8.38485 36.4914 5.73941C33.1838 3.09397 29.1794 1.46562 24.9643 1.05205"
        stroke-linecap="round" stroke="black" stroke-width="2px" class="p1"></path>
    <path
        d="M25.6896 19.6857L21.5647 23.5051L25.6896 27.3246C25.788 27.4157 25.866 27.5239 25.9193 27.643C25.9726 27.762 26 27.8897 26 28.0185C26 28.1474 25.9726 28.2751 25.9193 28.3941C25.866 28.5132 25.788 28.6214 25.6896 28.7125C25.5911 28.8037 25.4743 28.876 25.3457 28.9253C25.2171 28.9746 25.0793 29 24.9401 29C24.8009 29 24.663 28.9746 24.5344 28.9253C24.4058 28.876 24.289 28.8037 24.1906 28.7125L19.3109 24.1942C19.2123 24.1031 19.1342 23.995 19.0808 23.8759C19.0275 23.7568 19 23.6291 19 23.5002C19 23.3713 19.0275 23.2436 19.0808 23.1245C19.1342 23.0055 19.2123 22.8973 19.3109 22.8062L24.1906 18.2879C24.2889 18.1966 24.4057 18.1242 24.5344 18.0748C24.663 18.0254 24.8008 18 24.9401 18C25.0793 18 25.2172 18.0254 25.3458 18.0748C25.4744 18.1242 25.5912 18.1966 25.6896 18.2879C26.0935 18.6718 26.1042 19.3018 25.6896 19.6857Z"
        class="p2" stroke="black" fill="black"></path>
    <circle cx="7" cy="8" r="2" class="c1" stroke="black" fill="black"></circle>
</svg>